<mxfile host="drawio-plugin" modified="2023-10-18T09:25:28.445Z" agent="5.0 (Windows NT 6.2; Win64; x64) AppleWebKit/537.36 (KHTML, like Gecko) Chrome/104.0.5112.102 Safari/537.36" etag="bKiJnYeCtDKyXpuFhtoc" version="20.5.3" type="embed"><diagram name="Página-1" id="1WaEkd88R1eabdke-Tcu"><mxGraphModel dx="1207" dy="-958" grid="1" gridSize="10" guides="1" tooltips="1" connect="1" arrows="1" fold="1" page="1" pageScale="1" pageWidth="827" pageHeight="1169" math="0" shadow="0"><root><mxCell id="0"/><mxCell id="1" parent="0"/><mxCell id="2" value="saref:Commodity" style="rounded=0;whiteSpace=wrap;html=1;snapToPoint=1;points=[[0.1,0],[0.2,0],[0.3,0],[0.4,0],[0.5,0],[0.6,0],[0.7,0],[0.8,0],[0.9,0],[0,0.1],[0,0.3],[0,0.5],[0,0.7],[0,0.9],[0.1,1],[0.2,1],[0.3,1],[0.4,1],[0.5,1],[0.6,1],[0.7,1],[0.8,1],[0.9,1],[1,0.1],[1,0.3],[1,0.5],[1,0.7],[1,0.9]];fillColor=#FFFFFF;strokeColor=#000000;" parent="1" vertex="1"><mxGeometry x="340" y="1650" width="100" height="30" as="geometry"/></mxCell><mxCell id="3" style="rounded=0;orthogonalLoop=1;jettySize=auto;html=1;edgeStyle=orthogonalEdgeStyle;" parent="1" source="7" target="2" edge="1"><mxGeometry relative="1" as="geometry"/></mxCell><mxCell id="4" value="bigg4co2:appliesTo" style="edgeLabel;html=1;align=center;verticalAlign=middle;resizable=0;points=[];" parent="3" connectable="0" vertex="1"><mxGeometry x="-0.0969" y="-9" relative="1" as="geometry"><mxPoint y="-9" as="offset"/></mxGeometry></mxCell><mxCell id="5" style="edgeStyle=orthogonalEdgeStyle;rounded=0;orthogonalLoop=1;jettySize=auto;html=1;" parent="1" source="7" target="9" edge="1"><mxGeometry relative="1" as="geometry"/></mxCell><mxCell id="6" value="bigg4co2:hasDuration&lt;br&gt;bigg4co2:hasPeriod" style="edgeLabel;html=1;align=center;verticalAlign=middle;resizable=0;points=[];" parent="5" connectable="0" vertex="1"><mxGeometry x="-0.1494" y="-2" relative="1" as="geometry"><mxPoint x="3" y="-2" as="offset"/></mxGeometry></mxCell><mxCell id="7" value="bigg4co2:Co2EquivalentEmissionsFactor" style="rounded=0;whiteSpace=wrap;html=1;snapToPoint=1;points=[[0.1,0],[0.2,0],[0.3,0],[0.4,0],[0.5,0],[0.6,0],[0.7,0],[0.8,0],[0.9,0],[0,0.1],[0,0.3],[0,0.5],[0,0.7],[0,0.9],[0.1,1],[0.2,1],[0.3,1],[0.4,1],[0.5,1],[0.6,1],[0.7,1],[0.8,1],[0.9,1],[1,0.1],[1,0.3],[1,0.5],[1,0.7],[1,0.9]];fillColor=#dae8fc;strokeColor=#6c8ebf;" parent="1" vertex="1"><mxGeometry x="609.25" y="1650" width="243.5" height="30" as="geometry"/></mxCell><mxCell id="8" value="bigg4co2:hasStartTimestamp: xsd:dateTime" style="rounded=0;whiteSpace=wrap;html=1;snapToPoint=1;points=[[0.1,0],[0.2,0],[0.3,0],[0.4,0],[0.5,0],[0.6,0],[0.7,0],[0.8,0],[0.9,0],[0,0.1],[0,0.3],[0,0.5],[0,0.7],[0,0.9],[0.1,1],[0.2,1],[0.3,1],[0.4,1],[0.5,1],[0.6,1],[0.7,1],[0.8,1],[0.9,1],[1,0.1],[1,0.3],[1,0.5],[1,0.7],[1,0.9]];dashed=1;fillColor=#FFFFFF;" parent="1" vertex="1"><mxGeometry x="609.25" y="1680" width="242.5" height="30" as="geometry"/></mxCell><mxCell id="9" value="time:TemporalDuration" style="rounded=0;whiteSpace=wrap;html=1;snapToPoint=1;points=[[0.1,0],[0.2,0],[0.3,0],[0.4,0],[0.5,0],[0.6,0],[0.7,0],[0.8,0],[0.9,0],[0,0.1],[0,0.3],[0,0.5],[0,0.7],[0,0.9],[0.1,1],[0.2,1],[0.3,1],[0.4,1],[0.5,1],[0.6,1],[0.7,1],[0.8,1],[0.9,1],[1,0.1],[1,0.3],[1,0.5],[1,0.7],[1,0.9]];" parent="1" vertex="1"><mxGeometry x="1057" y="1650" width="140" height="30" as="geometry"/></mxCell><mxCell id="10" style="edgeStyle=orthogonalEdgeStyle;rounded=0;orthogonalLoop=1;jettySize=auto;html=1;endArrow=block;endFill=0;" parent="1" source="11" target="8" edge="1"><mxGeometry relative="1" as="geometry"><Array as="points"/></mxGeometry></mxCell><mxCell id="11" value="bigg4co2:ConsumptionBasedCo2EquivalentEmissionsFactor" style="rounded=0;whiteSpace=wrap;html=1;snapToPoint=1;points=[[0.1,0],[0.2,0],[0.3,0],[0.4,0],[0.5,0],[0.6,0],[0.7,0],[0.8,0],[0.9,0],[0,0.1],[0,0.3],[0,0.5],[0,0.7],[0,0.9],[0.1,1],[0.2,1],[0.3,1],[0.4,1],[0.5,1],[0.6,1],[0.7,1],[0.8,1],[0.9,1],[1,0.1],[1,0.3],[1,0.5],[1,0.7],[1,0.9]];fillColor=#dae8fc;strokeColor=#6c8ebf;" parent="1" vertex="1"><mxGeometry x="565.5" y="1810" width="330" height="30" as="geometry"/></mxCell><mxCell id="12" value="bigg4co2:forVolumeConsumption:" style="rounded=0;whiteSpace=wrap;html=1;snapToPoint=1;points=[[0.1,0],[0.2,0],[0.3,0],[0.4,0],[0.5,0],[0.6,0],[0.7,0],[0.8,0],[0.9,0],[0,0.1],[0,0.3],[0,0.5],[0,0.7],[0,0.9],[0.1,1],[0.2,1],[0.3,1],[0.4,1],[0.5,1],[0.6,1],[0.7,1],[0.8,1],[0.9,1],[1,0.1],[1,0.3],[1,0.5],[1,0.7],[1,0.9]];dashed=1;fillColor=#FFFFFF;" parent="1" vertex="1"><mxGeometry x="565.5" y="1840" width="330" height="30" as="geometry"/></mxCell><mxCell id="13" style="edgeStyle=orthogonalEdgeStyle;rounded=0;orthogonalLoop=1;jettySize=auto;html=1;endArrow=block;endFill=0;exitX=0.4;exitY=0;exitDx=0;exitDy=0;" parent="1" source="16" target="8" edge="1"><mxGeometry relative="1" as="geometry"><Array as="points"><mxPoint x="1004" y="1810"/><mxPoint x="1004" y="1770"/><mxPoint x="730" y="1770"/></Array></mxGeometry></mxCell><mxCell id="14" value="" style="edgeStyle=orthogonalEdgeStyle;rounded=0;orthogonalLoop=1;jettySize=auto;html=1;" parent="1" source="19" target="23" edge="1"><mxGeometry relative="1" as="geometry"/></mxCell><mxCell id="15" value="bigg4co2:forWeekDay" style="edgeLabel;html=1;align=center;verticalAlign=middle;resizable=0;points=[];" parent="14" connectable="0" vertex="1"><mxGeometry x="-0.2353" y="1" relative="1" as="geometry"><mxPoint as="offset"/></mxGeometry></mxCell><mxCell id="16" value="bigg4co2:TimeBasedCo2EquilvalentEmissionsFactor" style="rounded=0;whiteSpace=wrap;html=1;snapToPoint=1;points=[[0.1,0],[0.2,0],[0.3,0],[0.4,0],[0.5,0],[0.6,0],[0.7,0],[0.8,0],[0.9,0],[0,0.1],[0,0.3],[0,0.5],[0,0.7],[0,0.9],[0.1,1],[0.2,1],[0.3,1],[0.4,1],[0.5,1],[0.6,1],[0.7,1],[0.8,1],[0.9,1],[1,0.1],[1,0.3],[1,0.5],[1,0.7],[1,0.9]];fillColor=#dae8fc;strokeColor=#6c8ebf;" parent="1" vertex="1"><mxGeometry x="930" y="1810" width="286" height="30" as="geometry"/></mxCell><mxCell id="17" value="" style="edgeStyle=orthogonalEdgeStyle;rounded=0;orthogonalLoop=1;jettySize=auto;html=1;" parent="1" source="19" target="24" edge="1"><mxGeometry relative="1" as="geometry"><mxPoint x="1145.4736842105262" y="1949.6842105263158" as="targetPoint"/><Array as="points"><mxPoint x="1103" y="1915"/></Array></mxGeometry></mxCell><mxCell id="18" value="bigg4co2:forAbsoluteTimeAtDay" style="edgeLabel;html=1;align=center;verticalAlign=middle;resizable=0;points=[];" parent="17" connectable="0" vertex="1"><mxGeometry x="0.5782" y="2" relative="1" as="geometry"><mxPoint x="-60" y="2" as="offset"/></mxGeometry></mxCell><mxCell id="19" value="bigg4co2:forDayInMonth: xsd:gDay&amp;nbsp;" style="rounded=0;whiteSpace=wrap;html=1;snapToPoint=1;points=[[0.1,0],[0.2,0],[0.3,0],[0.4,0],[0.5,0],[0.6,0],[0.7,0],[0.8,0],[0.9,0],[0,0.1],[0,0.3],[0,0.5],[0,0.7],[0,0.9],[0.1,1],[0.2,1],[0.3,1],[0.4,1],[0.5,1],[0.6,1],[0.7,1],[0.8,1],[0.9,1],[1,0.1],[1,0.3],[1,0.5],[1,0.7],[1,0.9]];dashed=1;fillColor=#FFFFFF;" parent="1" vertex="1"><mxGeometry x="930" y="1840" width="286" height="30" as="geometry"/></mxCell><mxCell id="20" style="edgeStyle=orthogonalEdgeStyle;rounded=0;orthogonalLoop=1;jettySize=auto;html=1;endArrow=block;endFill=0;exitX=0.7;exitY=0;exitDx=0;exitDy=0;" parent="1" source="21" target="8" edge="1"><mxGeometry relative="1" as="geometry"><Array as="points"><mxPoint x="460" y="1810"/><mxPoint x="460" y="1770"/><mxPoint x="730" y="1770"/></Array></mxGeometry></mxCell><mxCell id="21" value="bigg4co2:ThresholdBasedCo2EquivalentEmissionsFactor" style="rounded=0;whiteSpace=wrap;html=1;snapToPoint=1;points=[[0.1,0],[0.2,0],[0.3,0],[0.4,0],[0.5,0],[0.6,0],[0.7,0],[0.8,0],[0.9,0],[0,0.1],[0,0.3],[0,0.5],[0,0.7],[0,0.9],[0.1,1],[0.2,1],[0.3,1],[0.4,1],[0.5,1],[0.6,1],[0.7,1],[0.8,1],[0.9,1],[1,0.1],[1,0.3],[1,0.5],[1,0.7],[1,0.9]];fillColor=#dae8fc;strokeColor=#6c8ebf;" parent="1" vertex="1"><mxGeometry x="220" y="1810" width="310" height="30" as="geometry"/></mxCell><mxCell id="22" value="bigg4co2:forVolumeFlow:&amp;nbsp;" style="rounded=0;whiteSpace=wrap;html=1;snapToPoint=1;points=[[0.1,0],[0.2,0],[0.3,0],[0.4,0],[0.5,0],[0.6,0],[0.7,0],[0.8,0],[0.9,0],[0,0.1],[0,0.3],[0,0.5],[0,0.7],[0,0.9],[0.1,1],[0.2,1],[0.3,1],[0.4,1],[0.5,1],[0.6,1],[0.7,1],[0.8,1],[0.9,1],[1,0.1],[1,0.3],[1,0.5],[1,0.7],[1,0.9]];dashed=1;fillColor=#FFFFFF;" parent="1" vertex="1"><mxGeometry x="220" y="1840" width="310" height="30" as="geometry"/></mxCell><mxCell id="23" value="time:DayOfWeek" style="rounded=0;whiteSpace=wrap;html=1;snapToPoint=1;points=[[0.1,0],[0.2,0],[0.3,0],[0.4,0],[0.5,0],[0.6,0],[0.7,0],[0.8,0],[0.9,0],[0,0.1],[0,0.3],[0,0.5],[0,0.7],[0,0.9],[0.1,1],[0.2,1],[0.3,1],[0.4,1],[0.5,1],[0.6,1],[0.7,1],[0.8,1],[0.9,1],[1,0.1],[1,0.3],[1,0.5],[1,0.7],[1,0.9]];" parent="1" vertex="1"><mxGeometry x="1397.98" y="1840" width="114" height="30" as="geometry"/></mxCell><mxCell id="24" value="time:Interval" style="rounded=0;whiteSpace=wrap;html=1;snapToPoint=1;points=[[0.1,0],[0.2,0],[0.3,0],[0.4,0],[0.5,0],[0.6,0],[0.7,0],[0.8,0],[0.9,0],[0,0.1],[0,0.3],[0,0.5],[0,0.7],[0,0.9],[0.1,1],[0.2,1],[0.3,1],[0.4,1],[0.5,1],[0.6,1],[0.7,1],[0.8,1],[0.9,1],[1,0.1],[1,0.3],[1,0.5],[1,0.7],[1,0.9]];" parent="1" vertex="1"><mxGeometry x="1322" y="1900" width="114" height="30" as="geometry"/></mxCell><mxCell id="25" value="&lt;div&gt;&lt;/div&gt;&lt;b&gt;bigg4co2:&amp;nbsp;&lt;/b&gt;http://bigg-project.eu/ld/bigg4co2#&lt;div&gt;&lt;b&gt;bigg&lt;/b&gt;: http://bigg-project.eu/ld/ontology#&lt;/div&gt;&lt;div&gt;&lt;/div&gt;&lt;b&gt;saref:&lt;/b&gt;&amp;nbsp;https://saref.etsi.org/core/&lt;br&gt;&lt;span style=&quot;border-color: var(--border-color);&quot;&gt;&lt;b style=&quot;border-color: var(--border-color);&quot;&gt;time:&amp;nbsp;&lt;/b&gt;http://www.w3.org/2006/time#&lt;br&gt;&lt;b&gt;dcterms:&lt;/b&gt;&amp;nbsp;http://purl.org/dc/terms/&lt;br&gt;&lt;div&gt;&lt;div&gt;&lt;b&gt;rdf:&amp;nbsp;&lt;/b&gt;http://www.w3.org/1999/02/22-rdf-syntax-ns#&lt;/div&gt;&lt;/div&gt;&lt;div&gt;&lt;div&gt;&lt;b&gt;rdfs:&amp;nbsp;&lt;/b&gt;http://www.w3.org/2000/01/rdf-schema#&lt;/div&gt;&lt;/div&gt;&lt;div&gt;&lt;div&gt;&lt;b&gt;owl:&lt;/b&gt;&amp;nbsp;http://www.w3.org/2002/07/owl#&lt;/div&gt;&lt;/div&gt;&lt;div&gt;&lt;b&gt;xsd:&amp;nbsp;&lt;/b&gt;http://www.w3.org/2001/XMLSchema#&lt;/div&gt;&lt;/span&gt;" style="shape=note;whiteSpace=wrap;html=1;backgroundOutline=1;darkOpacity=0.05;fillColor=#FFFFFF;" parent="1" vertex="1"><mxGeometry x="232" y="1420" width="328" height="130" as="geometry"/></mxCell><mxCell id="26" value="&lt;div&gt;&lt;b&gt;dcterms:creator:&lt;/b&gt;&amp;nbsp;Edgar Martínez-Sarmiento&lt;/div&gt;&lt;div&gt;&lt;div style=&quot;&quot;&gt;&lt;b&gt;dc&lt;/b&gt;&lt;b&gt;terms&lt;/b&gt;&lt;b&gt;:contributor&lt;/b&gt;:&amp;nbsp;Eloi Gabaldon&lt;/div&gt;&lt;div style=&quot;&quot;&gt;&lt;b&gt;dc&lt;/b&gt;&lt;b&gt;terms&lt;/b&gt;&lt;b&gt;:contributor&lt;/b&gt;:&amp;nbsp;Guillaume Picinbono&lt;/div&gt;&lt;div style=&quot;&quot;&gt;&lt;b&gt;dc&lt;/b&gt;&lt;b&gt;terms&lt;/b&gt;&lt;b&gt;:contributor&lt;/b&gt;:&amp;nbsp;Nicolas Bus&lt;/div&gt;&lt;div style=&quot;&quot;&gt;&lt;b&gt;dc&lt;/b&gt;&lt;b&gt;terms&lt;/b&gt;&lt;b&gt;:contributor&lt;/b&gt;:&amp;nbsp;Stoyan Danov&lt;/div&gt;&lt;div style=&quot;&quot;&gt;&lt;b&gt;dc&lt;/b&gt;&lt;b&gt;terms&lt;/b&gt;&lt;b&gt;:contributor: &lt;/b&gt;Jordi Carbonell&lt;/div&gt;&lt;/div&gt;&lt;div&gt;&lt;b&gt;owl:versionInfo:&lt;/b&gt;&amp;nbsp;1.0.0&lt;/div&gt;&lt;div&gt;&lt;b&gt;dcterms:title:&lt;/b&gt;&amp;nbsp;The BIGG for CO2 emissions ontology extension&lt;/div&gt;" style="shape=document;whiteSpace=wrap;html=1;boundedLbl=1;labelBackgroundColor=#ffffff;strokeColor=#000000;fontSize=12;fontColor=#000000;size=0.23333333333333334;fillColor=#FFFFFF;align=center;" parent="1" vertex="1"><mxGeometry x="1150" y="1420" width="361.98" height="190" as="geometry"/></mxCell><mxCell id="29" style="edgeStyle=orthogonalEdgeStyle;rounded=0;orthogonalLoop=1;jettySize=auto;html=1;endArrow=block;endFill=0;" parent="1" source="31" target="30" edge="1"><mxGeometry relative="1" as="geometry"><mxPoint x="648.2500000000002" y="2038.5699999999997" as="sourcePoint"/><mxPoint x="642.25" y="1978.0000000000002" as="targetPoint"/></mxGeometry></mxCell><mxCell id="30" value="saref:Property" style="rounded=0;whiteSpace=wrap;html=1;snapToPoint=1;points=[[0.1,0],[0.2,0],[0.3,0],[0.4,0],[0.5,0],[0.6,0],[0.7,0],[0.8,0],[0.9,0],[0,0.1],[0,0.3],[0,0.5],[0,0.7],[0,0.9],[0.1,1],[0.2,1],[0.3,1],[0.4,1],[0.5,1],[0.6,1],[0.7,1],[0.8,1],[0.9,1],[1,0.1],[1,0.3],[1,0.5],[1,0.7],[1,0.9]];" parent="1" vertex="1"><mxGeometry x="780" y="1948.0000000000002" width="100" height="30" as="geometry"/></mxCell><mxCell id="31" value="saref:Energy" style="rounded=0;whiteSpace=wrap;html=1;snapToPoint=1;points=[[0.1,0],[0.2,0],[0.3,0],[0.4,0],[0.5,0],[0.6,0],[0.7,0],[0.8,0],[0.9,0],[0,0.1],[0,0.3],[0,0.5],[0,0.7],[0,0.9],[0.1,1],[0.2,1],[0.3,1],[0.4,1],[0.5,1],[0.6,1],[0.7,1],[0.8,1],[0.9,1],[1,0.1],[1,0.3],[1,0.5],[1,0.7],[1,0.9]];fillColor=#FFFFFF;strokeColor=#000000;" parent="1" vertex="1"><mxGeometry x="890.25" y="2017.4299999999998" width="94" height="30" as="geometry"/></mxCell><mxCell id="32" style="edgeStyle=orthogonalEdgeStyle;rounded=0;orthogonalLoop=1;jettySize=auto;html=1;endArrow=block;endFill=0;" parent="1" source="34" target="33" edge="1"><mxGeometry relative="1" as="geometry"><mxPoint x="642.2500000000002" y="2149.14" as="sourcePoint"/><mxPoint x="636.25" y="2088.57" as="targetPoint"/></mxGeometry></mxCell><mxCell id="33" value="saref:Electricity" style="rounded=0;whiteSpace=wrap;html=1;snapToPoint=1;points=[[0.1,0],[0.2,0],[0.3,0],[0.4,0],[0.5,0],[0.6,0],[0.7,0],[0.8,0],[0.9,0],[0,0.1],[0,0.3],[0,0.5],[0,0.7],[0,0.9],[0.1,1],[0.2,1],[0.3,1],[0.4,1],[0.5,1],[0.6,1],[0.7,1],[0.8,1],[0.9,1],[1,0.1],[1,0.3],[1,0.5],[1,0.7],[1,0.9]];" parent="1" vertex="1"><mxGeometry x="454" y="2048" width="100" height="30" as="geometry"/></mxCell><mxCell id="34" value="bigg4co2:GridDeliveredElectricity" style="rounded=0;whiteSpace=wrap;html=1;snapToPoint=1;points=[[0.1,0],[0.2,0],[0.3,0],[0.4,0],[0.5,0],[0.6,0],[0.7,0],[0.8,0],[0.9,0],[0,0.1],[0,0.3],[0,0.5],[0,0.7],[0,0.9],[0.1,1],[0.2,1],[0.3,1],[0.4,1],[0.5,1],[0.6,1],[0.7,1],[0.8,1],[0.9,1],[1,0.1],[1,0.3],[1,0.5],[1,0.7],[1,0.9]];fillColor=#dae8fc;strokeColor=#6c8ebf;" parent="1" vertex="1"><mxGeometry x="564.25" y="2098" width="203.5" height="30" as="geometry"/></mxCell><mxCell id="35" style="edgeStyle=orthogonalEdgeStyle;rounded=0;orthogonalLoop=1;jettySize=auto;html=1;endArrow=block;endFill=0;" parent="1" source="37" target="36" edge="1"><mxGeometry relative="1" as="geometry"><mxPoint x="272.2500000000002" y="2238.5699999999997" as="sourcePoint"/><mxPoint x="266.25" y="2178" as="targetPoint"/></mxGeometry></mxCell><mxCell id="36" value="saref:Gas" style="rounded=0;whiteSpace=wrap;html=1;snapToPoint=1;points=[[0.1,0],[0.2,0],[0.3,0],[0.4,0],[0.5,0],[0.6,0],[0.7,0],[0.8,0],[0.9,0],[0,0.1],[0,0.3],[0,0.5],[0,0.7],[0,0.9],[0.1,1],[0.2,1],[0.3,1],[0.4,1],[0.5,1],[0.6,1],[0.7,1],[0.8,1],[0.9,1],[1,0.1],[1,0.3],[1,0.5],[1,0.7],[1,0.9]];" parent="1" vertex="1"><mxGeometry x="454" y="2148" width="100" height="30" as="geometry"/></mxCell><mxCell id="37" value="bigg4co2:LPG" style="rounded=0;whiteSpace=wrap;html=1;snapToPoint=1;points=[[0.1,0],[0.2,0],[0.3,0],[0.4,0],[0.5,0],[0.6,0],[0.7,0],[0.8,0],[0.9,0],[0,0.1],[0,0.3],[0,0.5],[0,0.7],[0,0.9],[0.1,1],[0.2,1],[0.3,1],[0.4,1],[0.5,1],[0.6,1],[0.7,1],[0.8,1],[0.9,1],[1,0.1],[1,0.3],[1,0.5],[1,0.7],[1,0.9]];fillColor=#dae8fc;strokeColor=#6c8ebf;" parent="1" vertex="1"><mxGeometry x="564.25" y="2208" width="103.5" height="30" as="geometry"/></mxCell><mxCell id="40" style="edgeStyle=orthogonalEdgeStyle;rounded=0;orthogonalLoop=1;jettySize=auto;html=1;endArrow=block;endFill=0;" parent="1" source="41" target="36" edge="1"><mxGeometry relative="1" as="geometry"><mxPoint x="142.25000000000023" y="2239.14" as="sourcePoint"/><mxPoint x="373.5357142857142" y="2177.9985714285717" as="targetPoint"/></mxGeometry></mxCell><mxCell id="41" value="bigg4co2:NaturalGas" style="rounded=0;whiteSpace=wrap;html=1;snapToPoint=1;points=[[0.1,0],[0.2,0],[0.3,0],[0.4,0],[0.5,0],[0.6,0],[0.7,0],[0.8,0],[0.9,0],[0,0.1],[0,0.3],[0,0.5],[0,0.7],[0,0.9],[0.1,1],[0.2,1],[0.3,1],[0.4,1],[0.5,1],[0.6,1],[0.7,1],[0.8,1],[0.9,1],[1,0.1],[1,0.3],[1,0.5],[1,0.7],[1,0.9]];fillColor=#dae8fc;strokeColor=#6c8ebf;" parent="1" vertex="1"><mxGeometry x="564.25" y="2308" width="123.5" height="30" as="geometry"/></mxCell><mxCell id="42" style="edgeStyle=orthogonalEdgeStyle;rounded=0;orthogonalLoop=1;jettySize=auto;html=1;endArrow=block;endFill=0;" parent="1" source="43" target="36" edge="1"><mxGeometry relative="1" as="geometry"><mxPoint x="404.2500000000002" y="2239.7099999999996" as="sourcePoint"/><mxPoint x="368.25" y="2208" as="targetPoint"/></mxGeometry></mxCell><mxCell id="43" value="bigg4co2:Propane" style="rounded=0;whiteSpace=wrap;html=1;snapToPoint=1;points=[[0.1,0],[0.2,0],[0.3,0],[0.4,0],[0.5,0],[0.6,0],[0.7,0],[0.8,0],[0.9,0],[0,0.1],[0,0.3],[0,0.5],[0,0.7],[0,0.9],[0.1,1],[0.2,1],[0.3,1],[0.4,1],[0.5,1],[0.6,1],[0.7,1],[0.8,1],[0.9,1],[1,0.1],[1,0.3],[1,0.5],[1,0.7],[1,0.9]];fillColor=#dae8fc;strokeColor=#6c8ebf;" parent="1" vertex="1"><mxGeometry x="564.25" y="2259.14" width="103.5" height="30" as="geometry"/></mxCell><mxCell id="45" value="saref:Coal" style="rounded=0;whiteSpace=wrap;html=1;snapToPoint=1;points=[[0.1,0],[0.2,0],[0.3,0],[0.4,0],[0.5,0],[0.6,0],[0.7,0],[0.8,0],[0.9,0],[0,0.1],[0,0.3],[0,0.5],[0,0.7],[0,0.9],[0.1,1],[0.2,1],[0.3,1],[0.4,1],[0.5,1],[0.6,1],[0.7,1],[0.8,1],[0.9,1],[1,0.1],[1,0.3],[1,0.5],[1,0.7],[1,0.9]];" parent="1" vertex="1"><mxGeometry x="454" y="1998.5700000000002" width="100" height="30" as="geometry"/></mxCell><mxCell id="46" style="edgeStyle=orthogonalEdgeStyle;rounded=0;orthogonalLoop=1;jettySize=auto;html=1;endArrow=block;endFill=0;" parent="1" source="45" target="47" edge="1"><mxGeometry relative="1" as="geometry"><mxPoint x="495.2857142857147" y="1947.997142857143" as="sourcePoint"/><mxPoint x="504" y="1958" as="targetPoint"/></mxGeometry></mxCell><mxCell id="47" value="saref:Commodity" style="rounded=0;whiteSpace=wrap;html=1;snapToPoint=1;points=[[0.1,0],[0.2,0],[0.3,0],[0.4,0],[0.5,0],[0.6,0],[0.7,0],[0.8,0],[0.9,0],[0,0.1],[0,0.3],[0,0.5],[0,0.7],[0,0.9],[0.1,1],[0.2,1],[0.3,1],[0.4,1],[0.5,1],[0.6,1],[0.7,1],[0.8,1],[0.9,1],[1,0.1],[1,0.3],[1,0.5],[1,0.7],[1,0.9]];fillColor=#FFFFFF;strokeColor=#000000;" parent="1" vertex="1"><mxGeometry x="330" y="1918" width="100" height="30" as="geometry"/></mxCell><mxCell id="48" style="edgeStyle=orthogonalEdgeStyle;rounded=0;orthogonalLoop=1;jettySize=auto;html=1;endArrow=block;endFill=0;" parent="1" source="33" target="47" edge="1"><mxGeometry relative="1" as="geometry"><mxPoint x="463.8214285714289" y="2023.1428571428573" as="sourcePoint"/><mxPoint x="389.5357142857142" y="1957.4285714285716" as="targetPoint"/></mxGeometry></mxCell><mxCell id="49" style="edgeStyle=orthogonalEdgeStyle;rounded=0;orthogonalLoop=1;jettySize=auto;html=1;endArrow=block;endFill=0;" parent="1" source="36" target="47" edge="1"><mxGeometry relative="1" as="geometry"><mxPoint x="473.8214285714289" y="2033.1428571428573" as="sourcePoint"/><mxPoint x="378.25" y="1938" as="targetPoint"/></mxGeometry></mxCell><mxCell id="50" value="bigg4co2:Co2EquivalentEmissions" style="rounded=0;whiteSpace=wrap;html=1;snapToPoint=1;points=[[0.1,0],[0.2,0],[0.3,0],[0.4,0],[0.5,0],[0.6,0],[0.7,0],[0.8,0],[0.9,0],[0,0.1],[0,0.3],[0,0.5],[0,0.7],[0,0.9],[0.1,1],[0.2,1],[0.3,1],[0.4,1],[0.5,1],[0.6,1],[0.7,1],[0.8,1],[0.9,1],[1,0.1],[1,0.3],[1,0.5],[1,0.7],[1,0.9]];fillColor=#dae8fc;strokeColor=#6c8ebf;" parent="1" vertex="1"><mxGeometry x="890.25" y="2077.43" width="203.5" height="30" as="geometry"/></mxCell><mxCell id="51" style="edgeStyle=orthogonalEdgeStyle;rounded=0;orthogonalLoop=1;jettySize=auto;html=1;endArrow=block;endFill=0;" parent="1" source="50" target="30" edge="1"><mxGeometry relative="1" as="geometry"><mxPoint x="899.8214285714289" y="2042.5728571428572" as="sourcePoint"/><mxPoint x="839.8214285714289" y="1988.2871428571432" as="targetPoint"/></mxGeometry></mxCell></root></mxGraphModel></diagram></mxfile>